# xmcd
#
# Track frame offsets: 
#        187
#        17520
#        31810
#        42925
#        53640
#        72822
#        91935
#        107700
#        121070
#        139190
#        154452
#        169622
#        181950
#        199892
#        209490
#        229770
#        250147
#        267445
#        286472
#
# Disc length: 4096 seconds
#
# Revision: 1
# Processed by: cddbd v1.5.2PL0 Copyright (c) Steve Scherf et al.
# Submitted via: ExactAudioCopy v0.95b4
#
DISCID=0a0ffe13
DTITLE=Various Artist - MCA Nashville Sampler Fall 1994
DYEAR=1994
DGENRE=Country
TTITLE0=The Mavericks - The Losing Side Of Me
TTITLE1=The Mavericks - I Got You
TTITLE2=David Lee Murphy - Out With A Bang
TTITLE3=Tracy Byrd - The First Step
TTITLE4=Tracy Byrd - Watermelon Crawl (Dance Mix)
TTITLE5=Vince Gill - Southside Of Dixie
TTITLE6=George Jones and Mark Knopfler - White Lightnin'
TTITLE7=George Jones and Keith Richards - Say It's Not You
TTITLE8=Rhett Akins - That Ain't My Truck
TTITLE9=Rhett Akins - I Break For Brunettes
TTITLE10=Terry McBride and The Ride - I Can't Dance
TTITLE11=Terry McBride and The Ride - Somebody Will
TTITLE12=Mark Chesnutt - Goin' Through The Big D (Club Mix)
TTITLE13=George Strait - The Big One
TTITLE14=Todd Snider - Alright Guy
TTITLE15=Todd Snider - Turn It Up
TTITLE16=Steve Earle - What's Your Name
TTITLE17=The Mavericks - Call Me The Breeze
TTITLE18=Travis Tritt - Don't Ask Me No Questions
EXTD=YEAR: 1994
EXTT0=
EXTT1=
EXTT2=
EXTT3=
EXTT4=
EXTT5=
EXTT6=
EXTT7=
EXTT8=
EXTT9=
EXTT10=
EXTT11=
EXTT12=
EXTT13=
EXTT14=
EXTT15=
EXTT16=
EXTT17=
EXTT18=
PLAYORDER=
